<svg width="200" height="200" viewBox="0 0 200 200" fill="none" xmlns="http://www.w3.org/2000/svg">
<path d="M183.333 134.917C183.333 165.25 165.25 183.333 134.917 183.333H125C120.416 183.333 116.667 179.583 116.667 175V126.917C116.667 124.667 118.5 122.75 120.75 122.75L135.416 122.5C136.583 122.417 137.583 121.583 137.833 120.417L140.75 104.5C141 103 139.833 101.583 138.25 101.583L120.5 101.833C118.166 101.833 116.333 99.9999 116.25 97.7499L115.917 77.3332C115.917 75.9998 117 74.8333 118.416 74.8333L138.416 74.4999C139.833 74.4999 140.917 73.4166 140.917 72L140.583 51.9998C140.583 50.5831 139.5 49.4999 138.083 49.4999L115.583 49.8333C101.75 50.0833 90.7499 61.4165 90.9999 75.2498L91.4165 98.1665C91.4998 100.5 89.6666 102.333 87.3333 102.417L77.3332 102.583C75.9165 102.583 74.8333 103.666 74.8333 105.083L75.0832 120.917C75.0832 122.333 76.1665 123.416 77.5831 123.416L87.5833 123.25C89.9166 123.25 91.7497 125.083 91.8331 127.333L92.583 174.833C92.6664 179.5 88.9164 183.333 84.2497 183.333H65.0831C34.7498 183.333 16.6665 165.25 16.6665 134.833V65.0831C16.6665 34.7498 34.7498 16.6665 65.0831 16.6665H134.917C165.25 16.6665 183.333 34.7498 183.333 65.0831V134.917Z" fill="#555151"/>
</svg>
