<svg width="200" height="200" viewBox="0 0 200 200" fill="none" xmlns="http://www.w3.org/2000/svg">
<path d="M47.3334 189.583C46.25 189.583 45.1666 189.333 44.1666 188.75C42.25 187.666 41.0834 185.583 41.0834 183.333V156.666C21.5 140.75 10.4167 118.083 10.4167 93.8333C10.4167 47.8333 50.5834 10.4165 100 10.4165C149.417 10.4165 189.583 47.8333 189.583 93.8333C189.583 139.833 149.417 177.25 100 177.25C91.9167 177.25 83.9169 176.25 76.1669 174.25L50.4166 188.75C49.5 189.333 48.4167 189.583 47.3334 189.583ZM100 22.9165C57.5001 22.9165 22.9167 54.7499 22.9167 93.8333C22.9167 115.167 33.1669 135.166 51.1669 148.666C52.7502 149.833 53.6668 151.667 53.6668 153.667V172.667L72.3334 162.166C73.75 161.333 75.5001 161.167 77.0834 161.583C84.5001 163.667 92.2501 164.75 100 164.75C142.5 164.75 177.083 132.917 177.083 93.8333C177.083 54.7499 142.5 22.9165 100 22.9165Z" fill="#555151"/>
<path d="M62.4999 120.833C60.4166 120.833 58.3332 119.75 57.1665 117.917C55.7498 115.583 55.9165 112.667 57.6665 110.583L89.1667 73.0833C91.0834 70.8333 94.2499 70.1667 96.8332 71.5833L108.917 77.9999L135.833 71.0833C138.5 70.4167 141.25 71.4999 142.667 73.8332C144.083 76.1666 143.917 79.0833 142.167 81.1666L110.833 118.667C108.917 121 105.5 121.583 102.916 120.083L92.1666 113.833L63.8331 120.75C63.4997 120.75 62.9999 120.833 62.4999 120.833ZM93.25 100.833C94.3333 100.833 95.4167 101.083 96.4167 101.667L104.75 106.5L120.25 87.9166L109.75 90.5833C108.25 91 106.667 90.75 105.25 90.0833L95.5001 84.9167L79.4998 103.917L91.6666 100.917C92.2499 100.917 92.75 100.833 93.25 100.833Z" fill="#555151"/>
</svg>
